<svg width="100" height="100" xmlns="http://www.w3.org/2000/svg">

 <g>
  <title>Layer 1</title>
  <text transform="matrix(4.40259 0 0 1.43619 -272.404 -15.9449)" stroke="#000" xml:space="preserve" text-anchor="start" font-family="'Anton'" font-size="24" id="svg_11" y="63.75464" x="66.72862" stroke-width="0" fill="#000000">0</text>
  <line stroke="#000" id="svg_12" y2="67.47852" x2="43.68029" y1="56.69145" x1="43.68029" fill="none"/>
  <line stroke="#000" id="svg_14" y2="67.47852" x2="57.06319" y1="56.69145" x1="57.06319" fill="none"/>
  <ellipse ry="9.29368" rx="2.97398" id="svg_17" cy="30.2974" cx="32.52788" stroke="#000" fill="#000000"/>
  <ellipse ry="9.29368" rx="2.97398" id="svg_18" cy="30.2974" cx="66.72862" stroke="#000" fill="#000000"/>
  <ellipse stroke="#000" ry="3.15985" rx="13.75465" id="svg_19" cy="86.6171" cx="50.37175" fill="#000000"/>
  <ellipse stroke="#000" ry="1.30111" rx="10.22306" id="svg_20" cy="87.73234" cx="50.55763" fill="#ffffff"/>
  <path id="svg_24" d="m14.68401,18.40149c-16.35688,10.40892 4.46097,-15.24164 4.2751,-15.42751c0.18587,0.18587 4.27509,13.94052 4.08922,13.75465" opacity="NaN" stroke-width="0" stroke="#000" fill="#000000"/>
  <path transform="rotate(6.29568 86.7361 11.1865)" id="svg_25" d="m85.68773,17.658c-16.35687,10.40892 4.46097,-15.24164 4.2751,-15.42751c0.18587,0.18587 4.27509,13.94052 4.08922,13.75464" opacity="NaN" stroke-width="0" stroke="#000" fill="#000000"/>
 </g>
</svg>