<svg version="1.1" id="Layer_1" xmlns="http://www.w3.org/2000/svg" xmlns:xlink="http://www.w3.org/1999/xlink" x="0px" y="0px"
	 width="100%" viewBox="0 0 512 512" enable-background="new 0 0 512 512" xml:space="preserve">
<path fill="#000000" opacity="1.000000" stroke="none" 
	d="
M183.000000,513.000000 
	C179.307098,513.000000 175.614182,513.000000 171.369537,512.654236 
	C161.443542,509.396942 156.798019,496.091003 163.878662,486.638763 
	C179.801544,465.382446 195.723129,444.125183 211.631653,422.858154 
	C215.454117,417.748138 219.223511,412.598419 223.362518,407.000000 
	C163.622513,407.000000 104.818184,406.845001 46.016068,407.137299 
	C34.916882,407.192444 26.849968,399.059418 26.876373,388.225342 
	C27.094809,298.603943 27.000000,208.981735 27.000000,119.359779 
	C27.000000,117.606766 27.000000,115.853752 27.000000,113.721619 
	C15.847329,115.057701 6.477673,113.465492 1.000000,103.000000 
	C1.000000,81.645775 1.000000,60.291546 1.345406,38.377895 
	C4.840835,30.435604 10.314738,26.945496 18.453369,26.954367 
	C90.524620,27.032925 162.595993,27.000000 234.667328,27.000000 
	C236.417892,27.000000 238.168472,27.000000 240.182648,27.000000 
	C239.230423,15.961714 240.462845,6.442866 251.000000,1.000000 
	C254.692917,1.000000 258.385834,1.000000 262.630463,1.345743 
	C274.796112,6.513983 274.055267,16.956633 274.024963,27.000000 
	C276.418701,27.000000 278.233185,27.000000 280.047638,27.000000 
	C350.620728,27.000000 421.194458,27.143236 491.766174,26.832329 
	C501.401123,26.789881 508.451721,29.450821 513.000000,38.000000 
	C513.000000,59.354229 513.000000,80.708458 512.654297,102.622437 
	C507.494507,114.826836 497.070374,114.148041 487.000000,114.032471 
	C487.000000,116.441086 487.000000,118.258041 487.000000,120.074997 
	C487.000000,209.697067 486.939453,299.319244 487.083862,388.941101 
	C487.100189,399.061554 479.163147,407.132202 468.767883,407.095947 
	C411.297180,406.895538 353.825439,407.000000 296.354034,407.000000 
	C294.742310,407.000000 293.130585,407.000000 290.638123,407.000000 
	C294.765564,412.606720 298.417542,417.668945 302.173889,422.652527 
	C317.682404,443.227722 333.329010,463.700256 348.657532,484.408417 
	C351.583954,488.361908 354.142914,492.622253 353.429047,498.414337 
	C352.554321,505.511383 348.606567,509.667511 343.000000,513.000000 
	C339.307098,513.000000 335.614166,513.000000 331.369995,512.654663 
	C328.104706,510.264282 324.755371,508.701202 322.779144,506.096344 
	C309.284332,488.308960 296.098114,470.287750 282.761597,452.379761 
	C280.165131,448.893341 277.346130,445.572754 274.000000,441.388062 
	C274.000000,458.999878 273.826050,475.325226 274.067474,491.644440 
	C274.204681,500.919952 271.684845,508.466736 263.000000,513.000000 
	C259.307098,513.000000 255.614182,513.000000 251.369537,512.654297 
	C242.819412,509.248993 240.184875,502.640869 240.071777,494.927063 
	C239.834976,478.773956 240.004349,462.615021 239.992111,446.458466 
	C239.991074,445.088074 239.879044,443.717773 239.769058,441.225342 
	C227.365433,457.854645 215.939926,473.738312 203.875168,489.120575 
	C197.365158,497.420746 192.679352,507.435974 183.000000,513.000000 
M454.000000,287.500000 
	C454.000000,229.739487 454.000000,171.978973 454.000000,114.285675 
	C322.358307,114.285675 191.289978,114.285675 60.286598,114.285675 
	C60.286598,200.974579 60.286598,287.377502 60.286598,373.714294 
	C191.641724,373.714294 322.710052,373.714294 454.000000,373.714294 
	C454.000000,345.119446 454.000000,316.809723 454.000000,287.500000 
M160.500000,80.000000 
	C266.924500,80.000000 373.349030,80.000000 479.713013,80.000000 
	C479.713013,73.024124 479.713013,66.618858 479.713013,60.282875 
	C331.026306,60.282875 182.626694,60.282875 34.286934,60.282875 
	C34.286934,66.975517 34.286934,73.382050 34.286934,80.000000 
	C76.215660,80.000000 117.857834,80.000000 160.500000,80.000000 
z"/>
<path fill="#FFFFFF" opacity="1.000000" stroke="none" 
	d="
M1.000000,103.468658 
	C6.477673,113.465492 15.847329,115.057701 27.000000,113.721619 
	C27.000000,115.853752 27.000000,117.606766 27.000000,119.359779 
	C27.000000,208.981735 27.094809,298.603943 26.876373,388.225342 
	C26.849968,399.059418 34.916882,407.192444 46.016068,407.137299 
	C104.818184,406.845001 163.622513,407.000000 223.362518,407.000000 
	C219.223511,412.598419 215.454117,417.748138 211.631653,422.858154 
	C195.723129,444.125183 179.801544,465.382446 163.878662,486.638763 
	C156.798019,496.091003 161.443542,509.396942 170.908905,512.654236 
	C114.376106,513.000000 57.752209,513.000000 1.000000,513.000000 
	C1.000000,376.645813 1.000000,240.291565 1.000000,103.468658 
z"/>
<path fill="#FFFFFF" opacity="1.000000" stroke="none" 
	d="
M343.468658,513.000000 
	C348.606567,509.667511 352.554321,505.511383 353.429047,498.414337 
	C354.142914,492.622253 351.583954,488.361908 348.657532,484.408417 
	C333.329010,463.700256 317.682404,443.227722 302.173889,422.652527 
	C298.417542,417.668945 294.765564,412.606720 290.638123,407.000000 
	C293.130585,407.000000 294.742310,407.000000 296.354034,407.000000 
	C353.825439,407.000000 411.297180,406.895538 468.767883,407.095947 
	C479.163147,407.132202 487.100189,399.061554 487.083862,388.941101 
	C486.939453,299.319244 487.000000,209.697067 487.000000,120.074997 
	C487.000000,118.258041 487.000000,116.441086 487.000000,114.032471 
	C497.070374,114.148041 507.494507,114.826836 512.654297,103.091095 
	C513.000000,239.563538 513.000000,376.127075 513.000000,513.000000 
	C456.646149,513.000000 400.291748,513.000000 343.468658,513.000000 
z"/>
<path fill="#FFFFFF" opacity="1.000000" stroke="none" 
	d="
M250.531342,1.000000 
	C240.462845,6.442866 239.230423,15.961714 240.182648,27.000000 
	C238.168472,27.000000 236.417892,27.000000 234.667328,27.000000 
	C162.595993,27.000000 90.524620,27.032925 18.453369,26.954367 
	C10.314738,26.945496 4.840835,30.435604 1.345406,37.909237 
	C1.000000,25.685490 1.000000,13.370979 1.000000,1.000000 
	C84.020889,1.000000 167.041779,1.000000 250.531342,1.000000 
z"/>
<path fill="#FFFFFF" opacity="1.000000" stroke="none" 
	d="
M513.000000,37.531342 
	C508.451721,29.450821 501.401123,26.789881 491.766174,26.832329 
	C421.194458,27.143236 350.620728,27.000000 280.047638,27.000000 
	C278.233185,27.000000 276.418701,27.000000 274.024963,27.000000 
	C274.055267,16.956633 274.796112,6.513983 263.091095,1.345743 
	C346.333344,1.000000 429.666718,1.000000 513.000000,1.000000 
	C513.000000,13.099356 513.000000,25.081020 513.000000,37.531342 
z"/>
<path fill="#FFFFFF" opacity="1.000000" stroke="none" 
	d="
M183.468658,513.000000 
	C192.679352,507.435974 197.365158,497.420746 203.875168,489.120575 
	C215.939926,473.738312 227.365433,457.854645 239.769058,441.225342 
	C239.879044,443.717773 239.991074,445.088074 239.992111,446.458466 
	C240.004349,462.615021 239.834976,478.773956 240.071777,494.927063 
	C240.184875,502.640869 242.819412,509.248993 250.908905,512.654297 
	C228.645767,513.000000 206.291550,513.000000 183.468658,513.000000 
z"/>
<path fill="#FFFFFF" opacity="1.000000" stroke="none" 
	d="
M263.468658,513.000000 
	C271.684845,508.466736 274.204681,500.919952 274.067474,491.644440 
	C273.826050,475.325226 274.000000,458.999878 274.000000,441.388062 
	C277.346130,445.572754 280.165131,448.893341 282.761597,452.379761 
	C296.098114,470.287750 309.284332,488.308960 322.779144,506.096344 
	C324.755371,508.701202 328.104706,510.264282 330.909363,512.654663 
	C308.645782,513.000000 286.291534,513.000000 263.468658,513.000000 
z"/>
<path fill="#FFFFFF" opacity="1.000000" stroke="none" 
	d="
M454.000000,288.000000 
	C454.000000,316.809723 454.000000,345.119446 454.000000,373.714294 
	C322.710052,373.714294 191.641724,373.714294 60.286598,373.714294 
	C60.286598,287.377502 60.286598,200.974579 60.286598,114.285675 
	C191.289978,114.285675 322.358307,114.285675 454.000000,114.285675 
	C454.000000,171.978973 454.000000,229.739487 454.000000,288.000000 
M211.500000,247.000000 
	C261.986145,247.000000 312.472992,246.862289 362.957794,247.123642 
	C372.333221,247.172180 380.551147,239.349579 380.100128,229.960678 
	C379.643829,220.461487 373.241211,214.000702 363.259064,214.000061 
	C358.093811,213.999725 352.928558,214.000000 347.763306,214.000000 
	C273.117188,214.000000 198.470947,213.951538 123.825340,214.147659 
	C120.213669,214.157166 116.022728,215.519608 113.122940,217.645355 
	C107.398232,221.841904 105.489830,229.319153 108.149628,236.412674 
	C110.682144,243.166779 116.582893,246.994049 124.523659,246.996506 
	C153.182434,247.005356 181.841217,247.000000 211.500000,247.000000 
M251.500000,300.000000 
	C262.329254,300.000000 273.192383,299.477081 283.976440,300.175171 
	C291.782440,300.680511 300.278931,291.530640 300.250977,284.307190 
	C300.212921,274.473541 292.251587,266.898163 283.734558,266.922760 
	C230.588425,267.075928 177.441315,266.900909 124.295349,267.078644 
	C112.862473,267.116882 107.520805,273.915771 107.113174,283.482971 
	C106.728767,292.504822 114.059242,300.162781 124.048439,300.104340 
	C166.197708,299.857788 208.349274,300.000000 251.500000,300.000000 
M189.011276,188.480713 
	C192.320145,184.525909 194.501419,180.184372 193.385162,174.837540 
	C190.845901,162.674606 183.892227,160.439056 174.256546,160.135132 
	C158.439606,159.636230 142.594543,159.912186 126.763588,160.077576 
	C123.766449,160.108887 120.621925,160.730377 117.818497,161.797180 
	C110.018127,164.765564 105.260880,172.753204 107.087807,180.004608 
	C109.023834,187.689133 115.187134,193.961288 124.686523,193.987137 
	C141.519028,194.032959 158.363327,194.341690 175.176651,193.771713 
	C179.658691,193.619781 184.046082,190.676041 189.011276,188.480713 
z"/>
<path fill="#FFFFFF" opacity="1.000000" stroke="none" 
	d="
M160.000000,80.000000 
	C117.857834,80.000000 76.215660,80.000000 34.286934,80.000000 
	C34.286934,73.382050 34.286934,66.975517 34.286934,60.282875 
	C182.626694,60.282875 331.026306,60.282875 479.713013,60.282875 
	C479.713013,66.618858 479.713013,73.024124 479.713013,80.000000 
	C373.349030,80.000000 266.924500,80.000000 160.000000,80.000000 
z"/>
<path fill="#000000" opacity="1.000000" stroke="none" 
	d="
M211.000000,247.000000 
	C181.841217,247.000000 153.182434,247.005356 124.523659,246.996506 
	C116.582893,246.994049 110.682144,243.166779 108.149628,236.412674 
	C105.489830,229.319153 107.398232,221.841904 113.122940,217.645355 
	C116.022728,215.519608 120.213669,214.157166 123.825340,214.147659 
	C198.470947,213.951538 273.117188,214.000000 347.763306,214.000000 
	C352.928558,214.000000 358.093811,213.999725 363.259064,214.000061 
	C373.241211,214.000702 379.643829,220.461487 380.100128,229.960678 
	C380.551147,239.349579 372.333221,247.172180 362.957794,247.123642 
	C312.472992,246.862289 261.986145,247.000000 211.000000,247.000000 
z"/>
<path fill="#000000" opacity="1.000000" stroke="none" 
	d="
M251.000000,300.000000 
	C208.349274,300.000000 166.197708,299.857788 124.048439,300.104340 
	C114.059242,300.162781 106.728767,292.504822 107.113174,283.482971 
	C107.520805,273.915771 112.862473,267.116882 124.295349,267.078644 
	C177.441315,266.900909 230.588425,267.075928 283.734558,266.922760 
	C292.251587,266.898163 300.212921,274.473541 300.250977,284.307190 
	C300.278931,291.530640 291.782440,300.680511 283.976440,300.175171 
	C273.192383,299.477081 262.329254,300.000000 251.000000,300.000000 
z"/>
<path fill="#000000" opacity="1.000000" stroke="none" 
	d="
M188.744110,188.747391 
	C184.046082,190.676041 179.658691,193.619781 175.176651,193.771713 
	C158.363327,194.341690 141.519028,194.032959 124.686523,193.987137 
	C115.187134,193.961288 109.023834,187.689133 107.087807,180.004608 
	C105.260880,172.753204 110.018127,164.765564 117.818497,161.797180 
	C120.621925,160.730377 123.766449,160.108887 126.763588,160.077576 
	C142.594543,159.912186 158.439606,159.636230 174.256546,160.135132 
	C183.892227,160.439056 190.845901,162.674606 193.385162,174.837540 
	C194.501419,180.184372 192.320145,184.525909 188.744110,188.747391 
z"/>
</svg>